<svg xmlns="http://www.w3.org/2000/svg" viewBox="0 0 48 48"><title>12-Sport</title><g id="_12-Sport" data-name="12-Sport"><path d="M6.917,39.941l-.7-1.875a15.006,15.006,0,0,0,0-28.132l.7-1.875a17.006,17.006,0,0,1,0,31.882Z"/><path d="M24,48A24,24,0,1,1,31.3,1.132L30.7,3.037a22,22,0,1,0-3.825,42.777l.258,1.984A24.345,24.345,0,0,1,24,48Z"/><rect x="23" y="1" width="2" height="46"/><rect x="1" y="23" width="26" height="2"/><path d="M45,48H33a1,1,0,0,1-1-1V45H31a1,1,0,0,1-1-1V15a2,2,0,0,1,2-2H46a2,2,0,0,1,2,2V44a1,1,0,0,1-1,1H46v2A1,1,0,0,1,45,48ZM34,46H44V44a1,1,0,0,1,1-1h1V15H32V43h1a1,1,0,0,1,1,1Z"/><path d="M42,15H36a1,1,0,0,1-1-1V10a1,1,0,0,1,1-1h6a1,1,0,0,1,1,1v4A1,1,0,0,1,42,15Zm-5-2h4V11H37Z"/><path d="M45,11H33a1,1,0,0,1-1-1V7a2,2,0,0,1,2-2H44a2,2,0,0,1,2,2v3A1,1,0,0,1,45,11ZM34,9H44V7H34Z"/><rect x="33" y="43" width="8" height="2"/><rect x="34" y="20" width="10" height="2"/><rect x="34" y="36" width="10" height="2"/><path d="M39,33a4,4,0,1,1,4-4A4,4,0,0,1,39,33Zm0-6a2,2,0,1,0,2,2A2,2,0,0,0,39,27Z"/></g></svg>