<svg xmlns="http://www.w3.org/2000/svg" xmlns:xlink="http://www.w3.org/1999/xlink" viewBox="0 0 498.9 445.04"><defs><style>.cls-1,.cls-31,.cls-5{fill:none;}.cls-2{clip-path:url(#clip-path);}.cls-3{clip-path:url(#clip-path-2);}.cls-4{fill:url(#Dégradé_sans_nom_9);}.cls-5{stroke:#221f1f;stroke-width:0px;}.cls-27,.cls-28,.cls-29,.cls-30,.cls-31,.cls-5{stroke-miterlimit:10;}.cls-6{clip-path:url(#clip-path-3);}.cls-7{fill:url(#Dégradé_sans_nom_9-2);}.cls-8{clip-path:url(#clip-path-4);}.cls-9{fill:url(#Dégradé_sans_nom_9-3);}.cls-10{clip-path:url(#clip-path-5);}.cls-11{fill:url(#Dégradé_sans_nom_9-4);}.cls-12{clip-path:url(#clip-path-6);}.cls-13{fill:url(#Dégradé_sans_nom_9-5);}.cls-14{clip-path:url(#clip-path-8);}.cls-15{fill:url(#Dégradé_sans_nom_9-6);}.cls-16{clip-path:url(#clip-path-10);}.cls-17{fill:url(#Dégradé_sans_nom_9-7);}.cls-18{clip-path:url(#clip-path-12);}.cls-19{fill:url(#Dégradé_sans_nom_9-8);}.cls-20{clip-path:url(#clip-path-14);}.cls-21{fill:url(#Dégradé_sans_nom_9-9);}.cls-22{fill:#010101;}.cls-23{isolation:isolate;}.cls-24{clip-path:url(#clip-path-16);}.cls-25{clip-path:url(#clip-path-17);}.cls-26{clip-path:url(#clip-path-18);}.cls-27,.cls-28,.cls-29,.cls-30{stroke:#231f20;stroke-width:2.5px;}.cls-27{fill:url(#linear-gradient);}.cls-28{fill:url(#linear-gradient-2);}.cls-29{fill:url(#linear-gradient-3);}.cls-30{fill:url(#linear-gradient-4);}.cls-31{stroke:#010101;stroke-linecap:round;stroke-width:6.96px;}.cls-32{fill:#1d1d1b;}</style><clipPath id="clip-path"><rect class="cls-1" x="60.24" y="36.15" width="0.92" height="0.92"/></clipPath><clipPath id="clip-path-2"><polygon class="cls-1" points="60.47 36.3 60.52 36.38 60.76 36.24 60.47 36.3"/></clipPath><linearGradient id="Dégradé_sans_nom_9" x1="-3.42" y1="2.93" x2="-3.42" y2="2.93" gradientTransform="matrix(0, -110.16, -110.16, 0, 383.9, -340.12)" gradientUnits="userSpaceOnUse"><stop offset="0" stop-color="#fff"/><stop offset="0.19" stop-color="#fbfbfb"/><stop offset="0.39" stop-color="#eeefef"/><stop offset="0.6" stop-color="#dadadb"/><stop offset="0.8" stop-color="#bdbdbf"/><stop offset="1" stop-color="#9a9b9d"/></linearGradient><clipPath id="clip-path-3"><polygon class="cls-1" points="60.52 36.38 60.51 36.31 60.75 36.25 60.52 36.38"/></clipPath><linearGradient id="Dégradé_sans_nom_9-2" x1="-11.02" y1="6.86" x2="-11.02" y2="6.86" gradientTransform="matrix(0, -41.16, -41.16, 0, 342.91, -417.32)" xlink:href="#Dégradé_sans_nom_9"/><clipPath id="clip-path-4"><polygon class="cls-1" points="60.64 36.37 60.51 36.31 60.76 36.24 60.64 36.37"/></clipPath><linearGradient id="Dégradé_sans_nom_9-3" x1="-0.7" y1="-3.29" x2="-0.7" y2="-3.29" gradientTransform="matrix(161.44, 0, 0, -161.44, 174.1, -494.75)" xlink:href="#Dégradé_sans_nom_9"/><clipPath id="clip-path-5"><polygon class="cls-1" points="60.43 36.28 60.76 36.24 60.47 36.3 60.43 36.28"/></clipPath><linearGradient id="Dégradé_sans_nom_9-4" x1="0.03" y1="-2.6" x2="0.03" y2="-2.6" gradientTransform="matrix(0, 221.64, 221.64, 0, 636.1, 29.06)" xlink:href="#Dégradé_sans_nom_9"/><clipPath id="clip-path-6"><path class="cls-1" d="M60.28,36.79h0Z"/></clipPath><linearGradient id="Dégradé_sans_nom_9-5" x1="0.08" y1="-0.51" x2="0.08" y2="-0.51" gradientTransform="matrix(426.64, 0, 0, -426.64, 25.98, -180.67)" xlink:href="#Dégradé_sans_nom_9"/><clipPath id="clip-path-8"><path class="cls-1" d="M60.65,37h0Zm0,0h0m-.07,0h0Zm.11,0h0m-.15,0h0Zm.18,0h0m-.22,0h0Zm.27,0h0m0,0h0m-.33,0h0Zm.36,0h0m-.39,0h0Zm.42,0h0m-.45,0h0v0Zm-.05,0h0Zm0,0h0m-.07,0h0Zm.1,0h0m-.14,0h0Zm.06,0,0,0h0l0,0Zm-.09,0h0Zm.2,0h0v0h0v0m-.13,0h0Zm0,0v0h0v0Zm.14,0h0Zm0,0v0h0v0Zm-.12,0h0s0,0,0,0h0s0,0,0,0m.09,0h0Zm-.07,0h0m0,0h0"/></clipPath><linearGradient id="Dégradé_sans_nom_9-6" x1="0.08" y1="-0.47" x2="0.08" y2="-0.47" gradientTransform="matrix(421.63, 0, 0, -421.63, 26.15, -162.65)" xlink:href="#Dégradé_sans_nom_9"/><clipPath id="clip-path-10"><polyline class="cls-1" points="60.93 36.87 60.93 36.87 60.94 36.86 60.94 36.86 60.93 36.87"/></clipPath><linearGradient id="Dégradé_sans_nom_9-7" x1="0.08" y1="-0.41" x2="0.08" y2="-0.41" gradientTransform="matrix(426.64, 0, 0, -426.64, 25.98, -136.4)" xlink:href="#Dégradé_sans_nom_9"/><clipPath id="clip-path-12"><path class="cls-1" d="M60.86,37h0Zm0,0h0Zm0,0h0Zm0,0h0Zm0,0,0,0h0Zm0,0h0Zm0,0v0h0Zm0,0v0h0v0Zm0,0,0,0h0v0Zm0,0v0h0v0Zm0,0v0h0v0Zm0,0h0Zm0,0v0h0v0Zm0,0v0h0v0Zm0,0h0m-.05,0v0h0v0Zm0,0h0Zm.07,0h0v0h0a0,0,0,0,0,0,0m-.1,0v0h0v0Zm0,0h0m.09,0h0Zm-.11,0h0Zm0,0h0v0h0v0m.06,0h0l0,0Zm0,0h0a0,0,0,0,0,0,0m0,0h0v0h0v0"/></clipPath><linearGradient id="Dégradé_sans_nom_9-8" x1="-0.51" y1="-1.14" x2="-0.51" y2="-1.14" gradientTransform="matrix(233.11, 0, 0, -233.11, 179.67, -228.42)" xlink:href="#Dégradé_sans_nom_9"/><clipPath id="clip-path-14"><path class="cls-1" d="M60.29,36.78h0v0h0v0m0,0h0v0h0v0m0,0h0v0h0v0m0,0h0v0m0,0h0v0h0v0m0,0h0v0h0v0m0,0h0v0h0v0m0,0h0m0,0h0m0,0h0m0,0h0v0h0m0,0h0m0,0h0"/></clipPath><linearGradient id="Dégradé_sans_nom_9-9" x1="0.19" y1="-2.54" x2="0.19" y2="-2.54" gradientTransform="matrix(137.84, 0, 0, -137.84, 34.16, -314.19)" xlink:href="#Dégradé_sans_nom_9"/><clipPath id="clip-path-16"><path class="cls-1" d="M120.85,257c-4.94-14.15,21.54-28.25,70.16-34.79,62.65-8.42,138.35-1.1,169.07,16.35L304.86,420.88c-15.86-9-54.92-12.79-87.26-8.44-25.09,3.38-38.76,10.65-36.21,17.95l-30.27-86.68Q143.56,322,136,300.37q-4.55-13-9.08-26Z"/></clipPath><clipPath id="clip-path-17"><path class="cls-1" d="M311.22,430.61c1.15-3.23-.83-6.59-6.36-9.73l55.22-182.29c10.71,6.09,14.54,12.6,12.33,18.86Z"/></clipPath><clipPath id="clip-path-18"><path class="cls-1" d="M181.39,430.39l-30.27-86.68Q143.56,322,136,300.37q-4.55-13-9.08-26L120.85,257c1.43,4.08,5.47,8.16,12.35,12.07,30.72,17.45,106.41,24.77,169.06,16.35,40.81-5.49,66-16.3,70.15-28h0L311.22,430.61c-2.13,6-15.14,11.62-36.2,14.45-32.33,4.35-71.4.57-87.26-8.44C184.21,434.61,182.13,432.5,181.39,430.39Z"/></clipPath><linearGradient id="linear-gradient" x1="419.39" y1="357.93" x2="383.42" y2="227.82" gradientTransform="translate(13.34 -18.11) rotate(3.07)" gradientUnits="userSpaceOnUse"><stop offset="0" stop-color="#fff"/><stop offset="0.19" stop-color="#fbfbfb"/><stop offset="0.39" stop-color="#eeefef"/><stop offset="0.59" stop-color="#dadadb"/><stop offset="0.79" stop-color="#bdbdbf"/><stop offset="1" stop-color="#98999b"/><stop offset="1" stop-color="#97989a"/></linearGradient><linearGradient id="linear-gradient-2" x1="408.2" y1="302.04" x2="399.74" y2="252.33" xlink:href="#linear-gradient"/><linearGradient id="linear-gradient-3" x1="299.52" y1="257.33" x2="497.34" y2="257.33" xlink:href="#linear-gradient"/><linearGradient id="linear-gradient-4" x1="254.25" y1="209.02" x2="522.94" y2="248.51" xlink:href="#linear-gradient"/></defs><g id="Calque_1" data-name="Calque 1"><g class="cls-2"><g class="cls-3"><rect class="cls-4" x="60.46" y="36.21" width="0.31" height="0.21" transform="translate(-7.48 17.46) rotate(-15.45)"/></g><polygon class="cls-5" points="60.47 36.3 60.52 36.38 60.76 36.24 60.47 36.3"/><g class="cls-6"><rect class="cls-7" x="60.5" y="36.23" width="0.27" height="0.18" transform="matrix(0.99, -0.17, 0.17, 0.99, -5.23, 10.69)"/></g><polygon class="cls-5" points="60.52 36.38 60.51 36.31 60.75 36.25 60.52 36.38"/><g class="cls-8"><rect class="cls-9" x="60.51" y="36.24" width="0.25" height="0.13"/></g><polygon class="cls-5" points="60.64 36.37 60.51 36.31 60.76 36.24 60.64 36.37"/><g class="cls-10"><rect class="cls-11" x="60.54" y="36.1" width="0.1" height="0.34" transform="translate(15.9 90.94) rotate(-81.64)"/></g><polygon class="cls-5" points="60.43 36.28 60.76 36.24 60.47 36.3 60.43 36.28"/><g class="cls-12"><rect class="cls-13" x="60.28" y="36.79" width="0.01" height="0.01"/></g><g class="cls-2"><path class="cls-5" d="M60.29,36.8h0Z"/></g><g class="cls-14"><rect class="cls-15" x="60.3" y="36.69" width="0.62" height="0.26"/></g><g class="cls-2"><path class="cls-5" d="M60.67,37h0Zm0,0Zm0,0h0Zm.09,0h0Zm-.13,0h0Zm.16,0Zm-.2,0h0Zm.24,0Zm-.27,0h0Zm.31,0Zm0,0Zm-.38,0h0Zm.41,0Zm-.44,0h0v0Zm0,0h0Zm0,0Zm-.06,0h0Zm.09,0Zm-.06,0,0,0h0l0,0Zm-.06,0h0Zm0,0h0Zm.18,0h0v0h0v0Zm-.12,0h0Zm0,0v0h0v0Zm.13,0h0Zm-.14,0h0s0,0,0,0h0S60.36,36.73,60.36,36.74Zm.13,0v0h0v0Zm0,0h0Zm-.09,0Zm0,0h0Z"/></g><g class="cls-16"><rect class="cls-17" x="60.93" y="36.86" width="0.01" height="0.01"/></g><g class="cls-2"><polygon class="cls-5" points="60.93 36.87 60.93 36.87 60.94 36.86 60.94 36.86 60.93 36.87"/></g><g class="cls-18"><rect class="cls-19" x="60.52" y="36.47" width="0.36" height="0.5"/></g><g class="cls-2"><path class="cls-5" d="M60.88,37h0Zm0,0h0Zm0,0h0Zm0,0h0Zm0,0,0,0h0Zm0,0h0Zm0,0v0h0Zm0,0v0h0v0Zm0,0,0,0h0v0Zm0,0v0h0v0Zm0,0v0h0v0Zm0,0h0Zm0,0v0h0v0Zm0,0v0h0v0Zm0,0v0h0v0Zm0,0Zm0,0h0Zm.06,0h0a0,0,0,0,1,0,0h0Zm-.09,0v0h0v0Zm0,0Zm.09,0h0Zm-.11,0h0Zm0,0h0v0h0Zm.08,0h0l0,0Zm0,0h0a0,0,0,0,1,0,0h0Zm0,0h0v0h0Z"/></g><g class="cls-20"><rect class="cls-21" x="60.29" y="36.39" width="0.21" height="0.39"/></g><g class="cls-2"><path class="cls-5" d="M60.29,36.78h0v0h0v0Zm0,0h0v0h0Zm0,0h0v0h0Zm0,0h0v0h0Zm0,0h0v0h0Zm0,0h0v0h0Zm0,0h0v0h0Zm0,0Zm0,0Zm0,0Zm0,0h0Zm0,0Zm0,0Z"/></g></g><path class="cls-22" d="M366.42,78.85a8.6,8.6,0,0,1-8.27,5.26c-4.73,0-6.94-3-6.94-7.3s2.17-7.6,6.06-8.49c-4.65-1.1-4.95-5.79-4.95-7,0-2.91,1.77-6,4.95-6,1.72,0,3.54.92,3.54,3.18A3.43,3.43,0,0,1,359,61.61a3.3,3.3,0,0,0,2.35,1.19c1.45,0,2.43-1.37,2.43-3.63,0-4.33-3.54-5.61-6.76-5.61-5.84,0-8.72,4.24-8.72,8.13a7.75,7.75,0,0,0,4,6.68,9.46,9.46,0,0,0-6,9.2c0,4.77,2.66,10,9.42,10,5,0,10.22-3,11.81-8.31Z"/><path class="cls-22" d="M326.19,13.59c-.5-.42-1.26-1.18-1.26-3.33A4.29,4.29,0,0,1,328,5.83V23.9h1.76V9.13l6.59,14.77h3.51V4.28h-1.76V21.43L330.8,4.59A4.61,4.61,0,0,0,329,4.22a6.11,6.11,0,0,0-6,6C323,12.57,324,13.59,326.19,13.59Z"/><path class="cls-22" d="M131.53,59.88c0-3.21,1.81-5.8,5.16-5.8a4.35,4.35,0,0,1,4.6,4.55,4.15,4.15,0,0,1-1.39,3.31A2.61,2.61,0,0,0,142,63c1.72,0,2.87-1.49,2.87-4,0-5.94-6.13-6.56-8.32-6.56-5,0-9.63,3.26-9.63,9.67,0,11.11,14,7,14,17.63,0,4.21-2.15,6.51-5.08,6.51-2.49,0-5.94-1.68-5.94-5.13a3.9,3.9,0,0,1,3.84-4.21c-.77-2.1-1.73-2.73-3.12-2.73-3.44,0-5.21,3.83-5.21,7,0,5.46,5.21,7.71,10.14,7.71,5.61,0,11.16-2.88,11.16-10.58C146.7,65.44,131.53,69.17,131.53,59.88Z"/><path class="cls-22" d="M154.14,20.72,150.62,4.35h-1.83l-3.17,16.37L142.1,4.32a7.19,7.19,0,0,0-1.06-.1c-4,0-6.35,2.54-6.35,5.52,0,2.59,1.43,3.25,2.76,3.25a5.38,5.38,0,0,1-1.16-3.45c0-2,.91-3.91,3.37-3.91l3.92,17.06h2.73l.37-1.75,2.46-11.59,3,13.34h2.74l.37-1.75,3.52-16.59h-1.41Z"/><path class="cls-22" d="M256,49a14,14,0,1,1-14-14A14,14,0,0,1,256,49Z"/><path class="cls-22" d="M151.81,61.83C156,59.75,323,24.48,323,24.48S275.26,39,247.25,50.41c0,0-9.33,4.15-14.52,1Z"/><path class="cls-22" d="M345.46,66.69c-4.5-2.45-185.76-44-185.76-44s51.79,17.11,82.18,30.55c0,0,10.14,4.89,15.77,1.22Z"/><g class="cls-23"><g class="cls-23"><g class="cls-24"><path class="cls-22" d="M288.6,409.73c0-1.56,1.1-2.89,2.13-2.63a55.2,55.2,0,0,1,14.6,9c.61.8.35,2,.05,3l-.15.36a2.19,2.19,0,0,1-.89,1.07c-.41-.23-.85-.45-1.3-.67a57.12,57.12,0,0,0-13.52-8.2,2,2,0,0,1-.92-2m-41.92-14.56.26,0c17.76,2.86,24.24,5,24.29,5.05,1.5.57,1.62,3.24.18,4.32a1.53,1.53,0,0,1-1.38.28,213.53,213.53,0,0,0-23.62-4.91,2.46,2.46,0,0,1-.39-.09,2.57,2.57,0,0,1-.24-4.43,2,2,0,0,1,.9-.25M198,393l.22,0a215.15,215.15,0,0,1,23.91-.14c1.77.29,2.49,2.82,1.19,4.18a1.82,1.82,0,0,1-1.4.58,230.89,230.89,0,0,0-23.11.13,1.83,1.83,0,0,1-.33,0c-1.4-.25-2.33-3.17-1-4.39a1.09,1.09,0,0,1,.54-.3m-25.78,5.61s0,0,0-.05a24.54,24.54,0,0,1,9.32-3.51c1,0,1.89,2.2,1.6,3.75-.06.37-.23.84-.61,1-4.07,1-6.49,1.63-8.88,3.38a.13.13,0,0,1-.09,0c-.44-.05-1.72-3.72-1.38-4.54"/><path class="cls-22" d="M301.3,348.46a2.24,2.24,0,0,1,2.57-2.51,73.37,73.37,0,0,1,19.2,10.65c.85.87.61,2.15.3,3.17l-.16.35c-.91,1.5-.91,1.5-5.09-1.58-3.05-2.25-8.27-4.93-15.51-8a2.33,2.33,0,0,1-1.31-2.09m-54.42-15.81.34,0c22.77,2.94,31.23,5.41,31.31,5.44a2.4,2.4,0,0,1-1.39,4.59,284.23,284.23,0,0,0-30.6-5.28,3.1,3.1,0,0,1-.51-.11,2.3,2.3,0,0,1-.7-4.19,2.83,2.83,0,0,1,1.55-.47m-62-.82.27-.05c19.58-1.69,30.3-1.2,30.38-1.19a2.33,2.33,0,0,1,1.72,3.83,2.71,2.71,0,0,1-2.13.94,273.33,273.33,0,0,0-29.48,1.2,2.91,2.91,0,0,1-.42,0c-1.69-.17-2.71-2.82-1.19-4.25a1.91,1.91,0,0,1,.85-.47m-32.25,9a.41.41,0,0,1,.05-.09,27.67,27.67,0,0,1,11.54-5.38c.79-.14,2,1.24,1.82,3.07-.07.86-.44,1.5-.94,1.64a49.3,49.3,0,0,0-6.06,2.1,15.61,15.61,0,0,0-5,3.15s-.07,0-.1.05c-.77-.27-1.68-3.78-1.35-4.54"/><path class="cls-22" d="M314,287.19a2.37,2.37,0,0,1,3-2.43A93.76,93.76,0,0,1,340.82,297a3,3,0,0,1,.55,3.3l-.17.36c-.85,1.24-1.64,1-2,.71-6.53-4.45-10.54-7-23.47-12a2.66,2.66,0,0,1-1.68-2.2M247.17,270.1h.33c25.19,2.73,36.11,5.27,38.05,5.75,2.47.62,2.93,2.9,1.45,4.09a3.43,3.43,0,0,1-2.75.59,352.09,352.09,0,0,0-37.58-5.64,4.62,4.62,0,0,1-.63-.11c-2.35-.59-2.94-2.89-1-4.1a4.09,4.09,0,0,1,2.18-.59m-75.45.55.27-.06c23.35-2.58,36.4-2.26,36.53-2.26,2.7.08,3.72,2,2.63,3.49a3.67,3.67,0,0,1-2.92,1.36,320.44,320.44,0,0,0-35.86,2.26h-.5a2.36,2.36,0,0,1-1.55-4,2.81,2.81,0,0,1,1.4-.82M133,283.1l.07-.1c1.72-1.62,4.92-4.64,13.57-7.23,1.31-.39,2.23,1.23,2.2,2.52a2.29,2.29,0,0,1-1.24,2.2c-6.14,2.18-9.77,3.59-13.15,7.12a.26.26,0,0,1-.12.09c-.71.12-1.78-3.57-1.33-4.6"/></g></g><g class="cls-23"><g class="cls-25"><path class="cls-22" d="M328,360.71l.1.11c1.92,2.85,3.19,4.73,3.54,7.72a14.44,14.44,0,0,1-1.63,8.6.49.49,0,0,1,0-.21c.32-4.1.3-6.49-3.57-11.82-1-1.32.42-5.22,1.55-4.4"/><path class="cls-22" d="M346.91,301.94l.13.13c2.54,3.48,3.94,5.4,4.52,9a15.18,15.18,0,0,1-1.55,9.35.88.88,0,0,1,0-.29c.3-4.8.22-7.59-4.69-13.82-1.18-1.5.22-5.39,1.58-4.38"/><path class="cls-22" d="M365.86,243.14s.11.1.15.15c3.11,4,4.68,6.05,5.51,10.28A16.32,16.32,0,0,1,370,263.69a1,1,0,0,1,0-.38c.27-5.48.14-8.67-5.81-15.77-1.42-1.7,0-5.6,1.62-4.4"/></g></g><g class="cls-23"><g class="cls-26"><path class="cls-22" d="M182.73,406.8l-.13-.05c-4.6-1.19-7.57-2-10.33-4.12l-.07,0c-.17.44,1.32,4.15,1.68,4.46a22.89,22.89,0,0,0,8.24,3.45c2.16.54,2.19.53,2.29.5.56-.15.48-.92.42-1.24a4.55,4.55,0,0,0-2.1-3m43.52,2.74H226c-10.2.26-15.49.25-24.9-.29a1.29,1.29,0,0,0-.34,0c-1.16.13-1.28,1.93.13,3.29a2.58,2.58,0,0,0,1.55.78,230.38,230.38,0,0,0,24.71.16,1.74,1.74,0,0,0,.94-3.08,2.71,2.71,0,0,0-1.8-.86M283.17,402l-.32.06a274.63,274.63,0,0,1-29.22,5.27,3.56,3.56,0,0,0-.47.1c-1.83.53-2.26,2.54-.74,3.46a2.49,2.49,0,0,0,1.65.33c20.27-2.86,28.56-5.26,28.9-5.36,1.67-.49,2.86-2.64,1.6-3.59a2,2,0,0,0-1.4-.27m41.18-18.11-.12.1c-4.6,3.7-7.44,5.83-16.92,10.14-2.07.94-2.75,4-1.36,4.06a1.75,1.75,0,0,0,.65-.14c5.34-2.53,9.56-4.52,14.65-8.53,4.31-3.39,3.44-5.67,3.42-5.69s-.11-.08-.32.06"/><path class="cls-22" d="M166.43,352.91l-.21-.07a64,64,0,0,1-7.31-2.45c-.84-.39-2-.86-2.78-1.33-1.15-.69-2.17-1.58-3.29-2.3-.27.4,1.21,4,1.71,4.49,3,2.25,4.33,3,10.69,5.11,2.8.94,3.85,1.29,3.59-.36a4.74,4.74,0,0,0-2.4-3.09m54.85,4.95h-.35a303.82,303.82,0,0,1-31.31-1.15,3.2,3.2,0,0,0-.44,0c-1.29.07-1.71,1.54-.36,3a3.73,3.73,0,0,0,2.25,1.15c20,1.55,30.84,1.05,30.94,1.05,2.13-.12,2.78-1.63,1.83-2.79a3.67,3.67,0,0,0-2.56-1.21m70.88-7.95-.3,0a338.06,338.06,0,0,1-36.34,5.82,5.86,5.86,0,0,0-.58.1c-2.09.51-2.76,2.25-1.26,3.28a3.79,3.79,0,0,0,2.44.55c19.28-2.32,30.08-4.47,35.76-5.86,2.56-.63,3.38-2.65,2.42-3.51a2.58,2.58,0,0,0-2.14-.43m50.77-21-.12.09c-5.61,4.32-9.08,6.81-20.73,11.8-2.48,1.06-3.26,4-1.59,4.11a2.21,2.21,0,0,0,1-.19c25.44-11.33,22-15.92,21.89-15.95a.56.56,0,0,0-.42.14"/><path class="cls-22" d="M150.09,299l-.25-.09c-10.62-3.47-12.07-4.62-16.37-8l-.1,0a12.6,12.6,0,0,0,1.87,4.53,28.71,28.71,0,0,0,8.77,5.17c9.05,3.48,9,3,8.82,1.59a4.94,4.94,0,0,0-2.74-3.21m66.24,7.19h-.42a359.42,359.42,0,0,1-37.73-2,3.25,3.25,0,0,0-.54,0c-1.48,0-2.12,1.28-.75,2.72a4.94,4.94,0,0,0,2.86,1.42c43.36,4.11,40.76.62,39.79-.7a4.63,4.63,0,0,0-3.21-1.42m85-8.35-.45.08a399.07,399.07,0,0,1-43.43,6.37c-.21,0-.49.06-.7.1-2.24.48-3.4,2.11-1.51,3.25a4.83,4.83,0,0,0,3,.54c50.56-5.38,47-8.74,45.78-9.84a3.16,3.16,0,0,0-2.64-.5M361.55,274l-.18.14c-6.62,4.95-10.72,7.8-24.54,13.47-2.81,1.15-3.7,3.88-1.86,4.09a2.8,2.8,0,0,0,1.35-.23c26.25-11.22,26.83-16.94,25.86-17.6-.19-.13-.44,0-.63.13"/></g></g></g><polygon class="cls-27" points="269.5 244.46 304.6 315.68 498.44 214.85 269.5 244.46"/><polygon class="cls-28" points="304.6 315.68 298.33 260.87 495.96 216.97 304.6 315.68"/><polygon class="cls-29" points="397.55 310.75 298.33 260.87 498.9 215.01 397.55 310.75"/><polygon class="cls-30" points="236.16 232.77 498.9 215.01 270.1 245.34 236.16 232.77"/><line class="cls-31" x1="242.15" y1="48.97" x2="244.44" y2="439.32"/></g><g id="Calque_3" data-name="Calque 3"><path class="cls-32" d="M59.43,231.19c-3.67-1-7.48-3.4-11.38-7.15a64.2,64.2,0,0,1-11.63-16A84.12,84.12,0,0,1,27.65,181c4.44-.42,6.69-.64,11.28-1.13a78.86,78.86,0,0,0,3.18,15.7A36.07,36.07,0,0,0,46,204.33c1.26,1.87,2.46,2.95,3.57,3.25,1.42.37,2-.51,1.84-2.67a55,55,0,0,0-1-7.06,121.67,121.67,0,0,0-4.25-16.09c-1.66-4.62-3.59-9.43-5.74-14.42-2.2-5.22-3.2-7.73-5-12.82a60.65,60.65,0,0,1-3.57-17.75c-.33-6.37.91-13.85,4.25-22.16,3.82-9.48,9.79-18.47,17.95-24.67C60.49,85,66.35,83.38,71.1,84.67c2.94.8,4.52,2.53,4.91,5.27a26.92,26.92,0,0,1-1,10.12c-1,4-2.3,8.29-3.77,12.78s-2.81,8.83-4.07,13c-5.14.23-7.7.34-12.8.51,1.25-4.2,2.46-7.79,3.48-10.83a39,39,0,0,0,1.9-7.15c.2-1.74-.23-2.75-1.34-3s-2.68.61-4.33,2.79A30.39,30.39,0,0,0,50.12,115a33,33,0,0,0-2.83,13.12A54.27,54.27,0,0,0,49,139.75c1.19,4.76,1.88,7.16,3.45,12,2.09,6.17,4,13,6,20.7s3.52,16.84,5.39,27.1c1.27,7,2.2,13,2.6,18.09s.21,8.84-.82,11.27S62.56,232.07,59.43,231.19Z"/><path class="cls-32" d="M104.8,242.24c-4.65-1-9-3.55-13-7.78a56.53,56.53,0,0,1-10.89-17.35,92.19,92.19,0,0,1-6.5-26.55,204,204,0,0,1,4.1-55.73,83.91,83.91,0,0,1,9.9-24.05c3.87-6.24,8.14-10.62,12.37-13.37a16.65,16.65,0,0,1,12.73-2.8c4.32.86,6.92,3.09,8,6.86s1.07,8.89.12,15.6-2.58,14.92-4.44,24.84a268.53,268.53,0,0,0-2.88,56c.82,10.44,1.61,19.06,1.86,26s-.28,11.92-2,15.06S109.49,243.21,104.8,242.24Zm-6.61-22.06c1.49.29,2.39-.33,2.73-1.89A20.93,20.93,0,0,0,101,212q-.37-3.95-.93-8.22a221.09,221.09,0,0,1,4.25-72c.71-2.78,1.34-5.4,1.87-7.88a22.45,22.45,0,0,0,.64-6.21c-.12-1.69-.87-2.65-2.27-2.91s-2.58.33-3.8,1.76a21.65,21.65,0,0,0-3.34,5.73A63.32,63.32,0,0,0,94.8,130a206.38,206.38,0,0,0-4.64,71.94,77.14,77.14,0,0,0,1.62,8.33A26.58,26.58,0,0,0,94.39,217,5.76,5.76,0,0,0,98.19,220.18Z"/><path class="cls-32" d="M156.82,250.79a20.77,20.77,0,0,1-12.89-6.72c-3.66-3.89-6.89-9.34-9.34-16.49a106.76,106.76,0,0,1-5.2-26.68c-1.67-34.45,2.32-66.74,13.7-99.33,5.13.76,7.71,1.12,12.89,1.79-11.43,33.71-13.61,69.26-11.31,104.52a89.65,89.65,0,0,0,1.31,9.34,29.17,29.17,0,0,0,2.47,7.67c1,2,2.34,3.12,3.88,3.29s2.61-.64,3.06-2.5a26.78,26.78,0,0,0,.44-7.36q-.24-4.57-.61-9.27c-2.15-35.18-.34-70.64,9.92-104.58,5.24.59,7.87.87,13.15,1.37-7.37,33-9.67,65.75-8.31,99.52.63,10.73,1,19.46.75,26.37s-1.32,11.9-3.43,15.13S161.75,251.39,156.82,250.79Z"/><path class="cls-32" d="M191,251.92c-6.9-48.45-6.89-96.65,1.5-144.9,5.35.39,8,.56,13.43.84-5.29,41.16-5.78,82.09-2.7,123.45,6.26.22,9.4.29,15.67.35.57,8.74.9,13,1.66,21.29C210.73,252.91,200.83,252.56,191,251.92Z"/><path class="cls-32" d="M294.11,249.55a723.69,723.69,0,0,0-3.24-121.11c-3.9.26-5.86.38-9.78.6-.85-8.8-1.33-13.06-2.38-21.23,10.52-.54,21.08-1.35,31.56-2.44,2,8.11,2.93,12.34,4.51,21.07-3.82.38-5.74.56-9.58.89a527,527,0,0,1,3.34,120.77C302.8,248.73,299.91,249,294.11,249.55Z"/><path class="cls-32" d="M329.79,245.45c6.31-47.68,3.85-94.78-8.62-141.27,6.56-.77,9.81-1.19,16.3-2.12a22.36,22.36,0,0,1,11.33,1.18c3.61,1.37,7.18,4.28,10.54,8.9s6.54,11.51,8.8,21a94.76,94.76,0,0,1,2.41,15.38,43,43,0,0,1-.79,12.32,23.75,23.75,0,0,1-4.28,9.38c4,23.13,5.35,45.17,3.2,68.59-5.63,1.13-8.46,1.66-14.14,2.67a298.49,298.49,0,0,0-2.21-63.93l-4.23.59a344.2,344.2,0,0,1-4.37,65.17C338.19,244.25,335.4,244.66,329.79,245.45Zm16.88-85.91,4.12-.56a5.79,5.79,0,0,0,4.55-3.09,15.41,15.41,0,0,0,1.44-7.21,55.07,55.07,0,0,0-1.2-10.69,42.89,42.89,0,0,0-4.6-13.32c-1.8-3-4-4.32-6.66-4l-4.47.62A276.37,276.37,0,0,1,346.67,159.54Z"/><path class="cls-32" d="M381.86,236.07c12.05-47.89,8.34-94.39-11.72-139.52,5.08-1,7.61-1.52,12.64-2.6q33,67.05,12.51,139C389.94,234.24,387.25,234.87,381.86,236.07Z"/><path class="cls-32" d="M410,229.09c15.37-48,10.69-94.12-13.41-138.29C404.15,89,407.9,88,415.32,86c3.32-.91,7-.34,11,1.77a41.45,41.45,0,0,1,12.4,10.78,70.41,70.41,0,0,1,11.14,20c3.81,10.34,4.7,18.83,4,25s-2.59,10.9-5.22,13.93a18.31,18.31,0,0,1-9.18,5.95l-5.69,1.49a173.68,173.68,0,0,1-10.53,60.38C418,226.88,415.32,227.64,410,229.09Zm21.26-86.3c1.88-.47,2.81-.71,4.68-1.2a4.72,4.72,0,0,0,3.47-3.09,13.57,13.57,0,0,0,.27-6.62A61.1,61.1,0,0,0,437,121.53a64.79,64.79,0,0,0-3.77-8.84,17.93,17.93,0,0,0-4.28-5.6,5.33,5.33,0,0,0-4.93-1.2L419.68,107A151.58,151.58,0,0,1,431.27,142.79Z"/></g></svg>