<svg xmlns="http://www.w3.org/2000/svg" xmlns:xlink="http://www.w3.org/1999/xlink" viewBox="0 0 480 640"><defs><style>.cls-1,.cls-8{fill:none;}.cls-2{clip-path:url(#clip-path);}.cls-12,.cls-3{fill:#c17d18;}.cls-10,.cls-12,.cls-13,.cls-14,.cls-15,.cls-3,.cls-4,.cls-5,.cls-6,.cls-7,.cls-8,.cls-9{stroke:#010101;}.cls-3,.cls-4,.cls-5{stroke-miterlimit:10;stroke-width:6.07px;}.cls-13,.cls-4{fill:#609cae;}.cls-14,.cls-5,.cls-9{fill:#f1cc6d;}.cls-6{fill:#ffea7b;}.cls-10,.cls-15,.cls-6,.cls-7,.cls-8,.cls-9{stroke-miterlimit:10;stroke-width:6.07px;}.cls-10,.cls-15,.cls-6,.cls-7,.cls-9{fill-rule:evenodd;}.cls-7{fill:#9f3a47;}.cls-10{fill:#d38a4f;}.cls-11{clip-path:url(#clip-path-2);}.cls-12,.cls-13,.cls-14{stroke-miterlimit:10;stroke-width:6.07px;}.cls-15{fill:#ffd873;}</style><clipPath id="clip-path"><path class="cls-1" d="M63.66,352c.2-4.44.4-10.11.81-17s2.22-15,1-24.07c-1.42-9.51-4.86-19.82-8.9-30.94-4.25-11.33-10.52-21.44-15.37-35-5.06-14-10.72-28.72-13.75-45.91-3.24-17-4.66-38-5.06-55-.61-17-.81-31.76,2.22-45.51,3-13.55,9.51-25.48,16-35.8S53.14,44,62.44,36.29c9.11-7.89,18.81-16.38,33.17-19.82,14.36-3.84,37.22-4.45,52-2.23C162,16.47,171.66,21.53,182.38,30,193.1,38.31,202.8,47.41,211.3,64.2c8.29,16.79,21.23,38.22,20.22,65.12-1.41,26.9-16.78,68.36-27.71,94.45-11.32,25.89-29.73,46.11-38.42,60.07-8.7,13.55-9.1,14.36-12.34,21.84a122,122,0,0,0-7.48,23.06,85.21,85.21,0,0,0-3,18.4Z"/></clipPath><clipPath id="clip-path-2"><path class="cls-1" d="M208.47,384.56c2-4.05,4.85-8.9,8.09-15s8.49-12.54,11.32-21.24c2.63-9.1,4.05-20.22,5.26-31.75,1-11.93-.2-24.07,1.21-38.22,1.42-14.56,2.84-30.74,7.28-47.33,4.45-16.78,12.14-36.4,19.22-51.77,6.67-15.58,13.14-29.13,21.64-40.05,8.49-11.12,19.62-18.81,29.93-25.48,10.11-6.67,19.42-11.53,31.15-14.36,11.52-3.24,23.86-6.47,38.42-3.64s35.6,11.93,47.73,20.22c11.94,8.3,18.61,17,24.68,29.13,5.86,12.13,10.92,24.67,11.32,43.28.21,18.6,2.63,43.68-9.7,67.55-13.15,23.66-44.5,54.6-65.73,73.41-21.44,18.41-46.72,28.92-60.48,37.62-13.55,8.7-14.36,9.1-20.42,14.36a123.46,123.46,0,0,0-16.79,17.6,79.1,79.1,0,0,0-10.72,15.37Z"/></clipPath></defs><g id="Calque_2" data-name="Calque 2"><g class="cls-2"><rect class="cls-3" x="-53.54" y="-2.24" width="355.96" height="374.36" transform="translate(-71.02 292.12) rotate(-84.8)"/><rect class="cls-4" x="68.92" y="-114.19" width="131.26" height="374.36" transform="translate(49.67 200.38) rotate(-84.8)"/><rect class="cls-5" x="83.58" y="148.02" width="54.2" height="374.36" transform="translate(-233.17 415.08) rotate(-84.8)"/><rect class="cls-4" x="77.61" y="40.54" width="85.96" height="374.36" transform="translate(-117.12 327.19) rotate(-84.8)"/><polygon class="cls-6" points="-10.57 246.63 -21.29 228.22 -42.52 226.6 -28.36 210.83 -33.22 190.2 -13.8 198.69 4.4 187.57 2.18 208.81 18.36 222.56 -2.48 227.01 -10.57 246.63"/><polygon class="cls-6" points="57.59 252.89 46.87 234.49 25.64 232.87 40 217.1 34.94 196.27 54.35 204.96 72.56 193.84 70.33 215.07 86.51 228.83 65.68 233.28 57.59 252.89"/><polygon class="cls-6" points="125.75 259.16 115.03 240.76 93.79 238.94 108.15 223.16 103.1 202.53 122.51 211.23 140.71 200.11 138.49 221.14 154.67 235.1 133.84 239.34 125.75 259.16"/><polygon class="cls-6" points="193.91 265.23 183.19 246.83 161.95 245.21 176.31 229.43 171.25 208.81 190.67 217.3 208.87 206.18 206.65 227.41 222.83 241.16 202 245.61 193.91 265.23"/><polygon class="cls-6" points="262.06 271.5 251.34 253.1 230.11 251.48 244.47 235.7 239.41 214.87 258.83 223.57 277.03 212.44 274.8 233.68 290.98 247.43 270.15 251.88 262.06 271.5"/><path class="cls-7" d="M250.33,17.68a116.74,116.74,0,0,1-116.9,68.56A116.36,116.36,0,0,1,30.89-2.14Z"/></g><path id="SVGID" class="cls-8" d="M63.66,352c.2-4.44.4-10.11.81-17s2.22-15,1-24.07c-1.42-9.51-4.86-19.82-8.9-30.94-4.25-11.33-10.52-21.44-15.37-35-5.06-14-10.72-28.72-13.75-45.91-3.24-17-4.66-38-5.06-55-.61-17-.81-31.76,2.22-45.51,3-13.55,9.51-25.48,16-35.8S53.14,44,62.44,36.29c9.11-7.89,18.81-16.38,33.17-19.82,14.36-3.84,37.22-4.45,52-2.23C162,16.47,171.66,21.53,182.38,30,193.1,38.31,202.8,47.41,211.3,64.2c8.29,16.79,21.23,38.22,20.22,65.12-1.41,26.9-16.78,68.36-27.71,94.45-11.32,25.89-29.73,46.11-38.42,60.07-8.7,13.55-9.1,14.36-12.34,21.84a122,122,0,0,0-7.48,23.06,85.21,85.21,0,0,0-3,18.4Z"/><path class="cls-9" d="M140.92,361.3l-1.62,14.36a18.26,18.26,0,0,0-10.11,6.47c-2.84,3.24-5.26,4.65-6.68,13.15-1.82,8.69-2.83,23.25-3,38-.41,14.36,2,30.74,1.41,47.93-.8,17.19-1.41,38.22-5,54.2-3.84,15.78-10.52,31.15-16.79,39.44C92.38,583,84.69,585,77.21,583.57c-7.89-1.82-18.41-6.88-23.06-18C49.7,554.24,49.3,535.63,50.51,517c1.22-18.81,6.07-41.67,10.32-62.09,4-20.43,12.33-45.31,14.36-59.06,2-13.55-.41-17.39-2.23-22.24-2-5.06-5-7.29-9.3-7.29L64.27,352Z"/><path class="cls-10" d="M62.65,373.84c.2,1.82,4.65,3.23,13.14,4.85,8.5,1.42,26.5,3.64,37.42,4.45,10.52.61,19.41.41,26.7-.81l2.62-20,1.22-24.47c-9.71.2-16.59,1.82-26.5,1.41s-21-1-29.73-2a212.62,212.62,0,0,1-22.45-3.44L63.46,351C63.05,358.67,62.85,366.15,62.65,373.84Z"/><g class="cls-11"><rect class="cls-12" x="182.07" y="83.11" width="325.6" height="342.39" transform="translate(-52.4 414.87) rotate(-58.41)"/><rect class="cls-13" x="338.62" y="-4.48" width="120.13" height="342.39" transform="translate(47.83 419) rotate(-58.41)"/><rect class="cls-14" x="247.87" y="200.75" width="49.55" height="342.39" transform="matrix(0.52, -0.85, 0.85, 0.52, -187.01, 409.36)"/><rect class="cls-13" x="285.06" y="116.46" width="78.47" height="342.39" transform="translate(-90.61 413.22) rotate(-58.41)"/><polygon class="cls-6" points="209.07 250.06 207.86 230.65 191.28 220.74 209.28 213.46 213.52 194.44 226.06 209.41 245.28 207.79 234.96 224.18 242.65 241.97 223.84 237.32 209.07 250.06"/><polygon class="cls-6" points="262.47 282.83 261.25 263.41 244.47 253.5 262.67 246.22 266.92 227.41 279.25 242.38 298.67 240.56 288.35 256.94 295.84 274.94 277.03 270.08 262.47 282.83"/><polygon class="cls-6" points="315.66 315.59 314.44 296.18 297.86 286.26 315.86 278.98 320.31 260.18 332.65 275.14 352.06 273.32 341.54 289.7 349.23 307.7 330.42 302.85 315.66 315.59"/><polygon class="cls-6" points="369.05 348.35 367.84 328.94 351.25 319.03 369.25 311.95 373.5 292.94 386.04 307.9 405.25 306.08 394.94 322.47 402.62 340.47 383.81 335.61 369.05 348.35"/><polygon class="cls-6" points="422.44 381.12 421.23 361.7 404.44 351.79 422.64 344.71 426.89 325.7 439.23 340.67 458.64 338.85 448.33 355.43 455.81 373.23 437 368.38 422.44 381.12"/><path class="cls-7" d="M516.08,168.36c-34.18,28.11-83.73,33.16-123.57,8.49A106.51,106.51,0,0,1,344.38,62.78Z"/></g><path id="SVGID-2" data-name="SVGID" class="cls-8" d="M208.47,384.56c2-4.05,4.85-8.9,8.09-15s8.49-12.54,11.32-21.24c2.63-9.1,4.05-20.22,5.26-31.75,1-11.93-.2-24.07,1.21-38.22,1.42-14.56,2.84-30.74,7.28-47.33,4.45-16.78,12.14-36.4,19.22-51.77,6.67-15.58,13.14-29.13,21.64-40.05,8.49-11.12,19.62-18.81,29.93-25.48,10.11-6.67,19.42-11.53,31.15-14.36,11.52-3.24,23.86-6.47,38.42-3.64s35.6,11.93,47.73,20.22c11.94,8.3,18.61,17,24.68,29.13,5.86,12.13,10.92,24.67,11.32,43.28.21,18.6,2.63,43.68-9.7,67.55-13.15,23.66-44.5,54.6-65.73,73.41-21.44,18.41-46.72,28.92-60.48,37.62-13.55,8.7-14.36,9.1-20.42,14.36a123.46,123.46,0,0,0-16.79,17.6,79.1,79.1,0,0,0-10.72,15.37Z"/><path class="cls-15" d="M274,426.22l-7.68,12.34A20.37,20.37,0,0,0,254.38,440c-4,1.62-6.68,1.82-11.73,8.9-5.46,7.08-12.75,20-19.22,33C217,494.58,211.9,510.35,204,525.72c-8.09,15.17-17.8,34-27.91,46.72-10.32,12.74-22.65,23.67-32.16,28.32-9.51,4.45-17.39,2.83-23.46-1.62-6.27-4.85-14-14.16-13.15-26.09.81-12.13,8.5-29.12,17.6-45.3,9.1-16.39,23.26-35,36-51.58,12.34-16.58,30.54-35.59,38.43-47.12,7.48-11.53,7.07-15.57,7.48-21,.4-5.26-1.42-8.7-5.26-10.52l6.67-12.74Z"/><path class="cls-10" d="M199,401.75c-.4,1.62,2.83,4.85,9.71,9.91,7.08,5,22.25,14.76,31.75,20.22,9.51,5.06,17.39,8.7,24.47,10.72l10.92-17,11.53-21c-8.69-4.05-15.77-6.07-24.47-10.52-8.9-4.85-18.4-10.11-26.09-14.56q-11.22-7-18.81-12.74l-8.9,14.76C205.84,388.2,202.4,395.07,199,401.75Z"/></g></svg>